<svg width="106" height="106" viewBox="0 0 106 106" fill="none" xmlns="http://www.w3.org/2000/svg">
<rect width="106" height="106" rx="24" fill="black"/>
<g clip-path="url(#clip0_638_6)">
<path d="M86.7419 73.8575C81.9486 72.0392 77.3275 70.337 72.7666 68.4973C72.0953 68.2265 71.5016 67.3926 71.1789 66.6791C65.5337 54.2479 59.9315 41.7953 54.3207 29.347C54.0411 28.728 53.7184 28.1306 53.202 27.086C51.1023 31.7069 49.179 35.8979 47.2858 40.106C43.3617 48.8491 39.4419 57.5921 35.5565 66.3524C34.967 67.6806 34.1452 68.3855 32.6995 68.8885C28.3968 70.3757 24.1973 72.1639 19.7354 73.9177C21.4866 69.9717 23.1948 66.0859 24.9331 62.213C31.9938 46.4978 39.0977 30.7999 46.1025 15.0547C46.7996 13.4857 47.63 12.9183 49.3167 13.0086C52.0317 13.1505 54.7639 13.129 57.4833 13.0215C58.9161 12.9656 59.6217 13.4427 60.2155 14.7753C67.4914 31.1008 74.8319 47.4005 82.1594 63.7002C83.6783 67.0788 85.2058 70.4574 86.7419 73.8618V73.8575Z" fill="white"/>
<path d="M14 86.7313C35.6385 68.2652 70.1249 67.8353 92 86.3101C89.427 88.9149 86.8496 91.5284 84.41 94C80.6623 91.9969 77.0351 89.6242 73.0895 88.0208C55.9603 81.0488 39.5927 82.8283 24.2147 93.0414C22.442 94.2192 21.5298 94.1547 20.1572 92.6503C18.2855 90.5956 16.1514 88.7774 14 86.7356L14 86.7313Z" fill="white"/>
</g>
<defs>
<clipPath id="clip0_638_6">
<rect x="14" y="13" width="78" height="81" rx="24" fill="white"/>
</clipPath>
</defs>
</svg>
