<svg width="935" height="117" viewBox="0 0 935 117" fill="none" xmlns="http://www.w3.org/2000/svg">
<path d="M135.576 93.768C133.016 93.768 130.808 92.904 128.952 91.176C127.16 89.384 126.264 87.112 126.264 84.36C126.264 81.608 127.16 79.4 128.952 77.736C130.808 76.008 133.016 75.144 135.576 75.144C138.2 75.144 140.408 76.008 142.2 77.736C143.992 79.4 144.888 81.608 144.888 84.36C144.888 87.112 143.992 89.384 142.2 91.176C140.408 92.904 138.2 93.768 135.576 93.768ZM150.355 93L180.307 25.8H195.667L225.715 93H209.395L184.819 33.672H190.963L166.291 93H150.355ZM165.331 78.6L169.459 66.792H204.019L208.243 78.6H165.331ZM263.023 40.584C267.119 40.584 270.767 41.416 273.967 43.08C277.231 44.68 279.791 47.176 281.647 50.568C283.503 53.896 284.431 58.184 284.431 63.432V93H269.455V65.736C269.455 61.576 268.527 58.504 266.671 56.52C264.879 54.536 262.319 53.544 258.991 53.544C256.623 53.544 254.479 54.056 252.559 55.08C250.703 56.04 249.231 57.544 248.143 59.592C247.119 61.64 246.607 64.264 246.607 67.464V93H231.631V41.352H245.935V55.656L243.247 51.336C245.103 47.88 247.759 45.224 251.215 43.368C254.671 41.512 258.607 40.584 263.023 40.584ZM323.341 93.768C317.773 93.768 312.813 92.648 308.461 90.408C304.109 88.104 300.685 84.936 298.189 80.904C295.757 76.872 294.541 72.296 294.541 67.176C294.541 61.992 295.757 57.416 298.189 53.448C300.685 49.416 304.109 46.28 308.461 44.04C312.813 41.736 317.773 40.584 323.341 40.584C328.781 40.584 333.517 41.736 337.549 44.04C341.581 46.28 344.557 49.512 346.477 53.736L334.861 59.976C333.517 57.544 331.821 55.752 329.773 54.6C327.789 53.448 325.613 52.872 323.245 52.872C320.685 52.872 318.381 53.448 316.333 54.6C314.285 55.752 312.653 57.384 311.437 59.496C310.285 61.608 309.709 64.168 309.709 67.176C309.709 70.184 310.285 72.744 311.437 74.856C312.653 76.968 314.285 78.6 316.333 79.752C318.381 80.904 320.685 81.48 323.245 81.48C325.613 81.48 327.789 80.936 329.773 79.848C331.821 78.696 333.517 76.872 334.861 74.376L346.477 80.712C344.557 84.872 341.581 88.104 337.549 90.408C333.517 92.648 328.781 93.768 323.341 93.768ZM386.21 40.584C390.306 40.584 393.954 41.416 397.154 43.08C400.418 44.68 402.978 47.176 404.834 50.568C406.69 53.896 407.618 58.184 407.618 63.432V93H392.642V65.736C392.642 61.576 391.714 58.504 389.858 56.52C388.066 54.536 385.506 53.544 382.178 53.544C379.81 53.544 377.666 54.056 375.746 55.08C373.89 56.04 372.418 57.544 371.33 59.592C370.306 61.64 369.794 64.264 369.794 67.464V93H354.818V21.768H369.794V55.656L366.434 51.336C368.29 47.88 370.946 45.224 374.402 43.368C377.858 41.512 381.794 40.584 386.21 40.584ZM446.144 93.768C440.64 93.768 435.744 92.616 431.456 90.312C427.232 88.008 423.872 84.872 421.376 80.904C418.944 76.872 417.728 72.296 417.728 67.176C417.728 61.992 418.944 57.416 421.376 53.448C423.872 49.416 427.232 46.28 431.456 44.04C435.744 41.736 440.64 40.584 446.144 40.584C451.584 40.584 456.448 41.736 460.736 44.04C465.024 46.28 468.384 49.384 470.816 53.352C473.248 57.32 474.464 61.928 474.464 67.176C474.464 72.296 473.248 76.872 470.816 80.904C468.384 84.872 465.024 88.008 460.736 90.312C456.448 92.616 451.584 93.768 446.144 93.768ZM446.144 81.48C448.64 81.48 450.88 80.904 452.864 79.752C454.848 78.6 456.416 76.968 457.568 74.856C458.72 72.68 459.296 70.12 459.296 67.176C459.296 64.168 458.72 61.608 457.568 59.496C456.416 57.384 454.848 55.752 452.864 54.6C450.88 53.448 448.64 52.872 446.144 52.872C443.648 52.872 441.408 53.448 439.424 54.6C437.44 55.752 435.84 57.384 434.624 59.496C433.472 61.608 432.896 64.168 432.896 67.176C432.896 70.12 433.472 72.68 434.624 74.856C435.84 76.968 437.44 78.6 439.424 79.752C441.408 80.904 443.648 81.48 446.144 81.48ZM484.475 93V41.352H498.779V55.944L496.763 51.72C498.299 48.072 500.763 45.32 504.155 43.464C507.547 41.544 511.675 40.584 516.539 40.584V54.408C515.899 54.344 515.323 54.312 514.811 54.312C514.299 54.248 513.755 54.216 513.179 54.216C509.083 54.216 505.755 55.4 503.195 57.768C500.699 60.072 499.451 63.688 499.451 68.616V93H484.475ZM581.614 93.48C577.198 93.48 573.23 92.488 569.71 90.504C566.19 88.456 563.406 85.512 561.358 81.672C559.31 77.832 558.286 73.192 558.286 67.752C558.286 62.248 559.31 57.608 561.358 53.832C563.47 49.992 566.286 47.08 569.806 45.096C573.326 43.112 577.262 42.12 581.614 42.12C586.414 42.12 590.702 43.208 594.478 45.384C598.318 47.496 601.326 50.472 603.502 54.312C605.678 58.152 606.766 62.632 606.766 67.752C606.766 72.808 605.678 77.288 603.502 81.192C601.326 85.032 598.318 88.04 594.478 90.216C590.702 92.392 586.414 93.48 581.614 93.48ZM555.598 93V21.768H562.414V57.48L561.454 67.656L562.126 77.832V93H555.598ZM581.134 87.432C584.718 87.432 587.918 86.632 590.734 85.032C593.55 83.368 595.79 81.064 597.454 78.12C599.118 75.112 599.95 71.656 599.95 67.752C599.95 63.784 599.118 60.328 597.454 57.384C595.79 54.44 593.55 52.168 590.734 50.568C587.918 48.904 584.718 48.072 581.134 48.072C577.55 48.072 574.318 48.904 571.438 50.568C568.622 52.168 566.382 54.44 564.718 57.384C563.118 60.328 562.318 63.784 562.318 67.752C562.318 71.656 563.118 75.112 564.718 78.12C566.382 81.064 568.622 83.368 571.438 85.032C574.318 86.632 577.55 87.432 581.134 87.432ZM620.66 93V42.6H627.188V56.328L626.516 53.928C627.924 50.088 630.292 47.176 633.62 45.192C636.948 43.144 641.076 42.12 646.004 42.12V48.744C645.748 48.744 645.492 48.744 645.236 48.744C644.98 48.68 644.724 48.648 644.468 48.648C639.156 48.648 634.996 50.28 631.988 53.544C628.98 56.744 627.476 61.32 627.476 67.272V93H620.66ZM678.517 93.48C673.653 93.48 669.269 92.392 665.365 90.216C661.525 87.976 658.485 84.936 656.245 81.096C654.005 77.192 652.885 72.744 652.885 67.752C652.885 62.696 654.005 58.248 656.245 54.408C658.485 50.568 661.525 47.56 665.365 45.384C669.205 43.208 673.589 42.12 678.517 42.12C683.509 42.12 687.925 43.208 691.765 45.384C695.669 47.56 698.709 50.568 700.885 54.408C703.125 58.248 704.245 62.696 704.245 67.752C704.245 72.744 703.125 77.192 700.885 81.096C698.709 84.936 695.669 87.976 691.765 90.216C687.861 92.392 683.445 93.48 678.517 93.48ZM678.517 87.432C682.165 87.432 685.397 86.632 688.213 85.032C691.029 83.368 693.237 81.064 694.837 78.12C696.501 75.112 697.333 71.656 697.333 67.752C697.333 63.784 696.501 60.328 694.837 57.384C693.237 54.44 691.029 52.168 688.213 50.568C685.397 48.904 682.197 48.072 678.613 48.072C675.029 48.072 671.829 48.904 669.013 50.568C666.197 52.168 663.957 54.44 662.293 57.384C660.629 60.328 659.797 63.784 659.797 67.752C659.797 71.656 660.629 75.112 662.293 78.12C663.957 81.064 666.197 83.368 669.013 85.032C671.829 86.632 674.997 87.432 678.517 87.432ZM727.026 93L708.018 42.6H714.546L731.826 89.352H728.85L746.61 42.6H752.466L770.034 89.352H767.058L784.626 42.6H790.866L771.762 93H765.33L748.434 49.032H750.45L733.458 93H727.026ZM814.103 93.48C809.943 93.48 806.007 92.904 802.295 91.752C798.583 90.536 795.671 89.032 793.559 87.24L796.631 81.864C798.679 83.4 801.303 84.744 804.503 85.896C807.703 86.984 811.063 87.528 814.583 87.528C819.383 87.528 822.839 86.792 824.951 85.32C827.063 83.784 828.119 81.768 828.119 79.272C828.119 77.416 827.511 75.976 826.295 74.952C825.143 73.864 823.607 73.064 821.687 72.552C819.767 71.976 817.623 71.496 815.255 71.112C812.887 70.728 810.519 70.28 808.151 69.768C805.847 69.256 803.735 68.52 801.815 67.56C799.895 66.536 798.327 65.16 797.111 63.432C795.959 61.704 795.383 59.4 795.383 56.52C795.383 53.768 796.151 51.304 797.687 49.128C799.223 46.952 801.463 45.256 804.407 44.04C807.415 42.76 811.063 42.12 815.351 42.12C818.615 42.12 821.879 42.568 825.143 43.464C828.407 44.296 831.095 45.416 833.207 46.824L830.231 52.296C827.991 50.76 825.591 49.672 823.031 49.032C820.471 48.328 817.911 47.976 815.351 47.976C810.807 47.976 807.447 48.776 805.271 50.376C803.159 51.912 802.103 53.896 802.103 56.328C802.103 58.248 802.679 59.752 803.831 60.84C805.047 61.928 806.615 62.792 808.535 63.432C810.519 64.008 812.663 64.488 814.967 64.872C817.335 65.256 819.671 65.736 821.975 66.312C824.343 66.824 826.487 67.56 828.407 68.52C830.391 69.416 831.959 70.728 833.111 72.456C834.327 74.12 834.935 76.328 834.935 79.08C834.935 82.024 834.103 84.584 832.439 86.76C830.839 88.872 828.471 90.536 825.335 91.752C822.263 92.904 818.519 93.48 814.103 93.48ZM868.85 93.48C863.602 93.48 858.994 92.392 855.026 90.216C851.058 87.976 847.954 84.936 845.714 81.096C843.474 77.192 842.354 72.744 842.354 67.752C842.354 62.76 843.41 58.344 845.522 54.504C847.698 50.664 850.642 47.656 854.354 45.48C858.13 43.24 862.354 42.12 867.026 42.12C871.762 42.12 875.954 43.208 879.602 45.384C883.314 47.496 886.226 50.504 888.338 54.408C890.45 58.248 891.506 62.696 891.506 67.752C891.506 68.072 891.474 68.424 891.41 68.808C891.41 69.128 891.41 69.48 891.41 69.864H847.538V64.776H887.762L885.074 66.792C885.074 63.144 884.274 59.912 882.674 57.096C881.138 54.216 879.026 51.976 876.338 50.376C873.65 48.776 870.546 47.976 867.026 47.976C863.57 47.976 860.466 48.776 857.714 50.376C854.962 51.976 852.818 54.216 851.282 57.096C849.746 59.976 848.978 63.272 848.978 66.984V68.04C848.978 71.88 849.81 75.272 851.474 78.216C853.202 81.096 855.57 83.368 858.578 85.032C861.65 86.632 865.138 87.432 869.042 87.432C872.114 87.432 874.962 86.888 877.586 85.8C880.274 84.712 882.578 83.048 884.498 80.808L888.338 85.224C886.098 87.912 883.282 89.96 879.89 91.368C876.562 92.776 872.882 93.48 868.85 93.48ZM905.379 93V42.6H911.907V56.328L911.235 53.928C912.643 50.088 915.011 47.176 918.339 45.192C921.667 43.144 925.795 42.12 930.723 42.12V48.744C930.467 48.744 930.211 48.744 929.955 48.744C929.699 48.68 929.443 48.648 929.187 48.648C923.875 48.648 919.715 50.28 916.707 53.544C913.699 56.744 912.195 61.32 912.195 67.272V93H905.379Z" fill="white"/>
<rect y="6" width="106" height="106" rx="12" fill="white"/>
<g clip-path="url(#clip0_622_33)">
<path d="M81.8143 74.0674C77.7283 72.5159 73.7891 71.0635 69.9012 69.4936C69.329 69.2626 68.8229 68.551 68.5478 67.9421C63.7356 57.3348 58.9601 46.7091 54.1772 36.0871C53.9388 35.559 53.6638 35.0491 53.2236 34.1579C51.4337 38.1008 49.7942 41.6769 48.1804 45.2677C44.8353 52.728 41.4939 60.1884 38.1819 67.6634C37.6794 68.7967 36.9788 69.3983 35.7465 69.8274C32.0786 71.0965 28.4988 72.6223 24.6953 74.1188C26.1881 70.7517 27.6442 67.436 29.126 64.1313C35.1449 50.7217 41.2005 37.3269 47.1717 23.8916C47.7659 22.5529 48.4738 22.0687 49.9116 22.1457C52.226 22.2668 54.555 22.2484 56.8731 22.1567C58.0945 22.1091 58.696 22.5162 59.2022 23.6532C65.4044 37.5836 71.6618 51.492 77.908 65.4003C79.2028 68.2833 80.5049 71.1662 81.8143 74.0711V74.0674Z" fill="black"/>
<path d="M19.8062 85.0525C38.2516 69.2956 67.6492 68.9288 86.2964 84.6931C84.103 86.9158 81.906 89.1458 79.8264 91.2548C76.6317 89.5456 73.5397 87.521 70.1763 86.1529C55.5747 80.2037 41.6223 81.7222 28.5136 90.4369C27.0024 91.4419 26.2248 91.3869 25.0548 90.1031C23.4593 88.3499 21.6401 86.7984 19.8062 85.0562L19.8062 85.0525Z" fill="black"/>
</g>
<defs>
<clipPath id="clip0_622_33">
<rect x="19.8062" y="22.1384" width="66.4902" height="69.1164" rx="12" fill="white"/>
</clipPath>
</defs>
</svg>
